<svg version="1.1" id="Layer_1" xmlns="http://www.w3.org/2000/svg" xmlns:xlink="http://www.w3.org/1999/xlink" x="0px" y="0px" viewBox="0 0 48 48" style="enable-background:new 0 0 512.001 512.001;" xml:space="preserve" transform="rotate(90)" width="48" height="48"><g><g><path d="M40.97 7.029C36.437 2.496 30.411 0 24 0s-12.438 2.496 -16.971 7.029S0 17.589 0 24c0 7.971 3.945 15.403 10.552 19.881a0.833 0.833 0 0 0 1.157 -0.222 0.833 0.833 0 0 0 -0.222 -1.157C5.338 38.334 1.667 31.418 1.667 24c0 -12.314 10.019 -22.333 22.333 -22.333S46.333 11.686 46.333 24c0 12.315 -10.019 22.333 -22.333 22.333 -3.6 0 -7.177 -0.876 -10.344 -2.535a0.834 0.834 0 0 0 -0.773 1.477C16.288 47.058 20.132 48 24 48c6.411 0 12.438 -2.496 16.971 -7.029 4.533 -4.533 7.029 -10.56 7.029 -16.971s-2.497 -12.437 -7.03 -16.97z"/></g></g><g><g><path d="M37.518 16.407a0.833 0.833 0 0 0 -1.135 -0.317 0.833 0.833 0 0 0 -0.317 1.135c1.158 2.057 1.77 4.4 1.77 6.775 0 7.629 -6.207 13.835 -13.835 13.835 -7.629 0 -13.835 -6.207 -13.835 -13.835 0 -7.629 6.207 -13.835 13.835 -13.835 4.144 0 8.035 1.835 10.676 5.035a0.833 0.833 0 0 0 1.286 -1.061c-2.959 -3.585 -7.319 -5.641 -11.962 -5.641 -8.548 0 -15.502 6.954 -15.502 15.502S15.452 39.502 24 39.502c8.548 0 15.502 -6.954 15.502 -15.502 0 -2.661 -0.686 -5.287 -1.984 -7.593z"/></g></g><g><g><path d="M30.87 17.696a0.833 0.833 0 0 0 -1.135 -0.316 0.833 0.833 0 0 0 -0.316 1.135 1.5 1.5 0 0 1 0.192 0.736c0 0.827 -0.673 1.5 -1.5 1.5s-1.5 -0.673 -1.5 -1.5 0.673 -1.5 1.5 -1.5a0.833 0.833 0 0 0 0 -1.667c-1.746 0 -3.167 1.421 -3.167 3.167 0 1.746 1.421 3.167 3.167 3.167s3.167 -1.421 3.167 -3.167a3.168 3.168 0 0 0 -0.408 -1.556z"/></g></g><g><g><path d="M19.333 28.086c-1.562 0 -2.833 1.271 -2.833 2.833s1.271 2.833 2.833 2.833 2.833 -1.271 2.833 -2.833 -1.271 -2.833 -2.833 -2.833zm0 4c-0.643 0 -1.167 -0.523 -1.167 -1.167s0.523 -1.167 1.167 -1.167 1.167 0.523 1.167 1.167 -0.523 1.167 -1.167 1.167z"/></g></g><g><g><path cx="298.669" cy="291.879" r="8.889" d="M28.834 27.364A0.833 0.833 0 0 1 28 28.197A0.833 0.833 0 0 1 27.167 27.364A0.833 0.833 0 0 1 28.834 27.364z"/></g></g><g><g><path cx="225.184" cy="194.689" r="8.889" d="M21.944 18.252A0.833 0.833 0 0 1 21.111 19.085A0.833 0.833 0 0 1 20.278 18.252A0.833 0.833 0 0 1 21.944 18.252z"/></g></g><g><g><path cx="168.293" cy="234.987" r="8.889" d="M16.611 22.03A0.833 0.833 0 0 1 15.777 22.863A0.833 0.833 0 0 1 14.944 22.03A0.833 0.833 0 0 1 16.611 22.03z"/></g></g></svg>